# xmcd
#
# Track frame offsets:
#	150
#	18973
#	45336
#	70475
#	88769
#	105013
#	117163
#	136103
#	157480
#	178722
#	193031
#	210709
#	237200
#
# Disc length: 3452 seconds
#
# Revision: 0
# Processed by: cddbd v1.4PL0 Copyright (c) Steve Scherf et al.
# Submitted via: dBpowerAMP V4.0
#
DISCID=ab0d7a0d
DTITLE=Eva Cassidy - Live at the Blues Alley
DYEAR=1900
DGENRE=
TTITLE0=Cheek to Cheek
TTITLE1=Stormy Monday
TTITLE2=Bridge Over Troubled Water
TTITLE3=Fine and Mellow
TTITLE4=People Get Ready
TTITLE5=Blue Skies
TTITLE6=Tall Trees in Georgia
TTITLE7=Fields of Gold
TTITLE8=Autumn Leaves
TTITLE9=Honeysuckle Rose
TTITLE10=Take Me to the River
TTITLE11=What a wonderful World
TTITLE12=Oh, Had I a Golden Thread
EXTD=
EXTT0=
EXTT1=
EXTT2=
EXTT3=
EXTT4=
EXTT5=
EXTT6=
EXTT7=
EXTT8=
EXTT9=
EXTT10=
EXTT11=
EXTT12=
PLAYORDER=
